<svg width="135" height="14" viewBox="0 0 135 14" fill="none" xmlns="http://www.w3.org/2000/svg">
<path d="M0 5.08103C0.00957967 10.614 0.0670577 11.4536 0.507722 12.304C0.996286 13.219 1.42737 13.4881 2.85474 13.7249C4.19589 13.951 7.4434 14.0479 9.139 13.8972C11.7255 13.6711 12.7218 13.3051 13.2008 12.3901C13.6606 11.5074 13.6989 11.023 13.6989 5.29632V0.000182152H12.1662H10.6334V5.0595C10.6334 10.8831 10.7005 10.4633 9.70421 10.614C8.98573 10.7216 5.02933 10.7216 4.19589 10.614C3.80313 10.5709 3.45826 10.4525 3.33372 10.3341L3.11339 10.1403L3.08465 5.07026L3.05591 0.000182152H1.53275H0V5.08103Z" fill="#174880"/>
<path d="M15.4237 1.66878V3.33728L19.361 3.35881L23.3078 3.3911L19.1694 7.2448L15.0405 11.0985V12.5517V13.9941H21.6026H28.1647V12.3256V10.6571L24.0742 10.6356L19.9836 10.6033L24.0742 6.73886L28.1647 2.87441V1.43196V0.000282288H21.7942H15.4237V1.66878Z" fill="#174880"/>
<path d="M29.6011 1.66878V3.33728H32.0439H34.4867V8.66571V13.9941H36.0195H37.5522V8.66571V3.33728H39.995H42.4378V1.66878V0.000282288H36.0195H29.6011V1.66878Z" fill="#174880"/>
<path d="M43.9707 6.99721V13.9941H49.9101H55.8495V12.3256V10.6571H51.4428H47.0266L47.0554 9.60222L47.0841 8.55806L51.3279 8.52577L55.5621 8.50424V6.88957V5.27489H51.2992H47.0362V4.30608V3.33728H51.4428H55.8495V1.66878V0.000282288H49.9101H43.9707V6.99721Z" fill="#174880"/>
<path d="M57.5742 6.99672V13.9937H63.322H69.0698V12.3252V10.6567H64.8548H60.6397V5.32823V-0.000205994H59.107H57.5742V6.99672Z" fill="#174880"/>
<path d="M70.5063 6.99721V13.9941H76.4457H82.3851V12.3256V10.6571H77.9785H73.5623L73.591 9.60222L73.6197 8.55806L77.8635 8.52577L82.0978 8.50424V6.88957V5.27489H77.8348H73.5718V4.30608V3.33728H77.9785H82.3851V1.66878V0.000282288H76.4457H70.5063V6.99721Z" fill="#174880"/>
<path d="M104.706 0.107741C101.027 0.376855 99.7819 1.31337 99.5329 4.00449C99.4083 5.31776 99.4083 8.73011 99.5329 9.95726C99.7532 12.1102 100.644 13.1651 102.646 13.6387C103.815 13.9186 109.841 13.9186 111.076 13.6387C112.178 13.3911 112.829 13.0574 113.356 12.4546C113.979 11.7549 114.18 11.0552 114.314 9.1284C114.448 7.14773 114.295 3.69232 114.046 2.85269C113.567 1.27031 112.494 0.506029 110.406 0.236917C109.141 0.0646839 106.191 9.63211e-05 104.706 0.107741ZM109.63 3.34786C110.856 3.52009 110.894 3.54162 111.096 4.27361C111.421 5.50076 111.268 9.83885 110.875 10.2802C110.569 10.6247 109.706 10.7108 106.766 10.7C103.346 10.6893 103.039 10.6354 102.742 9.95726C102.57 9.55898 102.55 9.31139 102.55 6.99703C102.55 3.59544 102.57 3.54162 104.074 3.34786C105.099 3.20792 108.662 3.21868 109.63 3.34786Z" fill="#174880"/>
<path d="M116.105 6.99672V13.9937H117.638H119.17L119.19 9.39721L119.218 4.80076L121.853 9.38644L124.487 13.9829H125.397L126.317 13.9937L128.942 9.41874L131.576 4.84382L131.605 9.41874L131.624 13.9937H133.157H134.69V6.99672V-0.000206947H132.697H130.695L128.08 4.73618C126.643 7.34119 125.436 9.47256 125.407 9.47256C125.378 9.47256 124.19 7.35195 122.763 4.7577L120.176 0.0536165L118.145 0.0213223L116.105 -0.000206947V6.99672Z" fill="#174880"/>
<path d="M88.1334 0.215466C84.7901 0.732162 84.0525 1.99161 84.0716 7.15857C84.0812 9.63441 84.1866 10.474 84.6464 11.6258C85.3074 13.2836 86.6677 13.8433 90.2889 13.9617C93.3065 14.0586 95.4044 13.7572 96.3815 13.1006C97.2724 12.4978 97.646 11.4428 97.7706 9.17154L97.8376 8.07356H96.3049H94.7721L94.7147 8.87013C94.6285 9.92505 94.4177 10.5279 94.0824 10.6355C93.9483 10.6786 92.588 10.7109 91.0552 10.7109C87.8365 10.7001 87.6257 10.657 87.3192 9.95734C86.9551 9.11771 87.0126 4.77962 87.3958 3.88616C87.5682 3.47711 88.1909 3.34794 90.241 3.27259C92.0324 3.208 94.0058 3.33717 94.3506 3.55246C94.571 3.68164 94.7434 4.47821 94.7434 5.38243V6.0283H96.2953H97.8376L97.7802 4.75809C97.6269 1.81938 97.0042 0.861337 94.9063 0.366169C94.092 0.161644 89.1489 0.0647631 88.1334 0.215466Z" fill="#174880"/>
</svg>
