<svg width="21" height="25" viewBox="0 0 21 25" fill="none" xmlns="http://www.w3.org/2000/svg">
<path d="M10.4667 1.87648C12.2538 2.52035 13.4487 3.37885 14.6542 4.86859C16.4624 7.09058 17.3401 9.65345 17.3401 12.6708C17.3401 17.7334 14.559 22.089 10.4138 23.4904L9.56787 23.7808L10.8368 23.7303C12.3066 23.6798 13.0151 23.4778 14.2629 22.7581C16.896 21.2684 18.683 18.655 19.3704 15.3473C19.6665 13.8954 19.6876 11.6356 19.4127 10.2089C18.7676 6.82546 16.9171 4.08584 14.2629 2.58347C13.0151 1.86385 12.3066 1.66185 10.8368 1.61135L9.56787 1.56085L10.4667 1.87648Z" fill="#174880"/>
<path d="M6.9661 2.96231C9.34535 3.70718 11.3439 5.66405 12.4225 8.31529C13.0993 9.98178 13.2579 10.8024 13.2579 12.6709C13.2579 14.5394 13.0993 15.36 12.4225 17.0265C11.3439 19.6777 9.34535 21.6346 6.9661 22.3795L6.18359 22.632H7.0084C10.7412 22.6699 14.051 19.6146 15.0767 15.1833C15.3411 14.0596 15.3411 11.2821 15.0767 10.1585C14.051 5.72717 10.7517 2.67193 7.0084 2.70981H6.18359L6.9661 2.96231Z" fill="#174880"/>
<path d="M4.35436 4.52723C4.38608 4.57773 4.79849 4.76711 5.25319 4.95648C6.26833 5.37311 7.07199 5.99173 7.89679 6.9891C9.134 8.47884 9.72617 10.1453 9.81077 12.2916C9.86364 13.8823 9.68387 14.9302 9.12343 16.3316C8.58413 17.6824 7.26233 19.2479 6.04627 19.9675C5.55984 20.2579 5.00997 20.523 4.79849 20.5735C4.59757 20.6114 4.40723 20.7124 4.37551 20.7755C4.29091 20.9397 5.64444 20.7882 6.4481 20.5483C8.2246 20.0054 9.96938 18.2884 10.7625 16.3189C11.3123 14.9428 11.4604 14.1474 11.4604 12.6703C11.4604 11.1932 11.3123 10.3978 10.7625 9.02171C9.96938 7.05222 8.2246 5.33523 6.4481 4.79236C5.77133 4.59036 4.24861 4.40098 4.35436 4.52723Z" fill="#174880"/>
<path d="M3.35044 6.87601C4.71454 7.39363 6.02577 8.85813 6.56507 10.4867C6.77656 11.1054 6.80828 11.4462 6.80828 12.6709C6.80828 13.8955 6.77656 14.2364 6.56507 14.855C6.02577 16.4836 4.71454 17.9481 3.35044 18.4657L2.69482 18.7182H3.13895C6.11037 18.7687 8.54249 15.2716 8.03491 11.6861C7.63308 8.82025 5.46533 6.58564 3.13895 6.62351H2.69482L3.35044 6.87601Z" fill="#174880"/>
<path d="M2.50397 9.1988C3.20188 9.61543 3.94209 10.6002 4.16416 11.3703C4.25933 11.6985 4.33335 12.2793 4.33335 12.6707C4.33335 13.062 4.25933 13.6428 4.16416 13.971C3.94209 14.7412 3.20188 15.7259 2.50397 16.1425L1.9541 16.4834L2.46167 16.4076C3.43452 16.2688 4.28048 15.5239 4.74575 14.4129C5.36964 12.9358 5.13701 11.1052 4.18531 9.98155C3.68831 9.38818 3.09614 9.02205 2.46167 8.93368L1.9541 8.85793L2.50397 9.1988Z" fill="#174880"/>
<path d="M1.49955 10.6129C1.98598 11.2316 2.15517 11.7871 2.15517 12.6708C2.15517 13.5545 1.98598 14.11 1.49955 14.716C1.17175 15.1327 1.26692 15.1705 1.75334 14.8044C2.94825 13.9333 2.94825 11.4083 1.75334 10.5372C1.26692 10.1711 1.17175 10.2089 1.49955 10.6129Z" fill="#174880"/>
</svg>
